<svg viewBox="0 0 285 235" xmlns="http://www.w3.org/2000/svg" xmlns:xlink="http://www.w3.org/1999/xlink">
    <!-- Safari requires the xlink namespace and can't use href directly -->
    <defs>
        <style>
            use, use:target ~ use:last-child {
                display: none;
            }
            use:target, use:last-child {
                display: inline;
            }
        </style>
        <symbol id="logo" viewBox="0 0 285 235">
            <path d="M241.665,182.894C241.364,182.14 240.722,181.865 240.007,182.29C239.291,182.717 225.837,190.733 225.837,190.733L225.837,183.346C225.837,182.517 225.309,182.215 224.556,182.517L220.184,184.099C219.581,184.326 219.354,184.778 219.354,185.381L219.354,217.859C219.354,218.537 219.807,218.989 220.485,218.989L224.706,218.989C225.385,218.989 225.837,218.537 225.837,217.859L225.837,197.965C225.837,197.965 241.701,188.175 242.344,187.79C242.986,187.405 243.315,187.08 243.021,186.358C242.7,185.567 241.665,182.894 241.665,182.894"/>
            <path d="M7.993,196.603C9.425,191.403 13.495,188.237 19.223,188.237C25.479,188.237 28.796,191.93 29.097,196.603L7.993,196.603ZM35.956,198.563C35.956,189.518 29.776,181.906 19.45,181.906C9.274,181.906 0.832,189.217 0.832,201.125C0.832,211.979 7.917,219.893 19.826,219.893C25.253,219.893 30.68,218.009 34.75,214.391C35.278,213.939 35.278,213.336 34.901,212.808L32.866,209.643C32.489,209.04 31.886,208.964 31.283,209.416C27.59,212.13 23.821,213.487 19.826,213.487C12.214,213.487 8.068,208.512 7.54,202.256L34.842,202.256C35.54,202.256 35.956,201.75 35.956,201.141L35.956,198.563Z"/>
            <path d="M59.733,213.487C53.327,213.487 47.824,209.115 47.824,200.824C47.824,192.533 53.327,188.237 59.733,188.237C66.441,188.237 71.642,192.533 71.642,200.824C71.642,209.191 66.441,213.487 59.733,213.487M72.698,234.064L76.919,234.064C77.597,234.064 78.049,233.612 78.049,232.933L78.049,183.338C78.049,182.508 77.522,182.208 76.692,182.508L72.396,184.091C71.793,184.318 71.567,184.769 71.567,185.373L71.567,186.956C69.231,183.79 64.632,181.906 59.658,181.906C49.784,181.906 41.191,189.292 41.191,200.9C41.191,211.15 47.824,219.893 59.281,219.893C64.482,219.893 69.457,217.557 71.567,214.92L71.567,232.933C71.567,233.612 72.019,234.064 72.698,234.064"/>
            <path d="M99.52,219.893C103.439,219.893 107.736,218.612 110.525,214.542L110.525,217.859C110.525,218.537 110.977,218.989 111.655,218.989L115.876,218.989C116.555,218.989 117.007,218.537 117.007,217.859L117.007,183.413C117.007,182.508 116.479,182.207 115.725,182.508L111.353,184.091C110.751,184.318 110.525,184.769 110.525,185.372L110.525,203.462C110.525,209.869 106.379,213.487 100.726,213.487C95.148,213.487 91.38,209.944 91.38,203.462L91.38,183.337C91.38,182.508 90.852,182.207 90.099,182.508L85.727,184.091C85.124,184.318 84.898,184.769 84.898,185.372L84.898,203.688C84.898,214.391 91.38,219.893 99.52,219.893"/>
            <path d="M125.825,178.664L130.423,177.156C131.177,176.931 131.478,176.554 131.478,175.8L131.478,170.298C131.478,169.619 130.95,169.092 130.121,169.393L125.598,171.052C124.921,171.277 124.544,171.579 124.544,172.332L124.544,177.608C124.544,178.437 124.996,178.966 125.825,178.664"/>
            <path d="M125.9,218.989L130.12,218.989C130.799,218.989 131.252,218.537 131.252,217.859L131.252,183.338C131.252,182.509 130.724,182.208 129.97,182.509L125.598,184.092C124.995,184.318 124.769,184.769 124.769,185.373L124.769,217.859C124.769,218.537 125.221,218.989 125.9,218.989"/>
            <path d="M140.144,218.989L144.365,218.989C145.043,218.989 145.496,218.537 145.496,217.859L145.496,198.337C145.496,191.93 149.641,188.312 155.294,188.312C160.872,188.312 164.64,191.855 164.64,198.337L164.64,217.859C164.64,218.537 165.093,218.989 165.771,218.989L169.992,218.989C170.67,218.989 171.123,218.537 171.123,217.859L171.123,198.111C171.123,187.408 164.64,181.906 156.5,181.906C152.581,181.906 148.285,183.187 145.496,187.258L145.496,183.338C145.496,182.509 144.968,182.208 144.214,182.509L139.842,184.092C139.24,184.318 139.014,184.769 139.014,185.373L139.014,217.859C139.014,218.537 139.466,218.989 140.144,218.989"/>
            <path d="M195.276,213.562C187.814,213.562 183.292,207.985 183.292,200.9C183.292,193.814 187.814,188.237 195.276,188.237C202.663,188.237 207.185,193.814 207.185,200.9C207.185,207.985 202.663,213.562 195.276,213.562M195.276,181.906C184.422,181.906 176.659,189.97 176.659,200.9C176.659,211.829 184.422,219.893 195.276,219.893C206.13,219.893 213.818,211.829 213.818,200.9C213.818,189.97 206.13,181.906 195.276,181.906"/>
            <path d="M176.919,31.419L176.919,69.934C176.919,71.074 177.491,72.129 178.48,72.698L211.852,91.925C213.268,92.74 215.074,91.719 215.075,90.085L215.075,51.57C215.076,50.429 214.467,49.374 213.478,48.805L180.106,29.579C178.69,28.764 176.921,29.784 176.919,31.419M279.71,1.345L231.664,29.024C230.24,29.844 229.363,31.362 229.365,33.006L229.365,88.454C229.368,90.807 231.966,92.277 234.004,91.103L282.051,63.424C283.474,62.604 284.297,61.085 284.296,59.442L284.297,3.993C284.295,1.641 281.749,0.171 279.71,1.345M213.8,119.277L200.448,126.97C200.052,127.197 199.809,127.619 199.809,128.076L199.808,143.485C199.809,144.14 200.532,144.548 201.099,144.222L214.451,136.529C214.847,136.302 215.076,135.88 215.075,135.423L215.075,120.013C215.075,119.359 214.367,118.951 213.8,119.277M206.019,105.058L186.022,93.488C185.43,93.146 184.699,93.146 184.106,93.488L164.11,105.058C163.262,105.549 163.262,106.774 164.11,107.265L184.106,118.835C184.699,119.178 185.43,119.178 186.022,118.835L206.019,107.265C206.867,106.774 206.867,105.549 206.019,105.058M238.211,107.144L247.095,112.284C247.622,112.589 248.271,112.589 248.798,112.284L257.682,107.144C258.436,106.707 258.436,105.618 257.682,105.182L248.798,100.041C248.271,99.736 247.622,99.736 247.095,100.041L238.211,105.182C237.457,105.618 237.457,106.707 238.211,107.144M231.064,119.516L239.958,124.64C240.485,124.943 240.81,125.506 240.809,126.114L240.799,136.378C240.798,137.25 239.856,137.794 239.1,137.359L230.207,132.235C229.679,131.932 229.366,131.368 229.366,130.761L229.365,120.497C229.365,119.627 230.309,119.081 231.064,119.516"/>
        </symbol>
    </defs>
    <use id="red" xlink:href="#logo" fill="#ff1234" />
    <use id="white" xlink:href="#logo" fill="white" />
    <use id="black" xlink:href="#logo" fill="black" />
</svg>
